<svg xmlns="http://www.w3.org/2000/svg" viewBox="0 0 400 300" fill="none">
  <rect width="400" height="300" rx="8" fill="#1a1a24"/>
  <!-- Document shape -->
  <rect x="120" y="35" width="160" height="210" rx="4" fill="#111118" stroke="#3e3e50" stroke-width="1"/>
  <rect x="120" y="35" width="160" height="35" rx="4" fill="#2d1b4e"/>
  <text x="200" y="58" text-anchor="middle" fill="#d4a0b9" font-family="sans-serif" font-size="11" font-weight="bold">GUÍA PSICOEDUCATIVA</text>
  <!-- Content lines -->
  <rect x="140" y="85" width="120" height="4" rx="2" fill="#3e3e50"/>
  <rect x="140" y="97" width="100" height="4" rx="2" fill="#3e3e50"/>
  <rect x="140" y="109" width="110" height="4" rx="2" fill="#3e3e50"/>
  <rect x="140" y="125" width="80" height="3" rx="1.5" fill="#2a2a36"/>
  <rect x="140" y="135" width="120" height="3" rx="1.5" fill="#2a2a36"/>
  <rect x="140" y="145" width="90" height="3" rx="1.5" fill="#2a2a36"/>
  <rect x="140" y="155" width="110" height="3" rx="1.5" fill="#2a2a36"/>
  <!-- Brain icon -->
  <circle cx="200" cy="200" r="22" fill="#2d1b4e" opacity="0.6"/>
  <text x="200" y="207" text-anchor="middle" font-size="20">🧠</text>
  <!-- Download indicator -->
  <circle cx="255" cy="220" r="12" fill="#7c4dbd" opacity="0.3"/>
  <text x="255" y="225" text-anchor="middle" fill="#d4a0b9" font-size="12">↓</text>
</svg>
